<?xml version="1.0" standalone="no"?>
<!DOCTYPE svg PUBLIC "-//W3C//DTD SVG 1.0//EN" "http://www.w3.org/TR/2001/REC-SVG-20010904/DTD/svg10.dtd">
<svg width="328" height="245">
<desc></desc>
<polyline style = "fill:none; stroke:#000000; stroke-width:0.5" points = "137,201 127,199 116,197 106,194 96,190 86,185 77,180 69,172 62,163 55,153 50,143 46,132 43,122 41,112 39,97 40,86 42,76 47,66 55,55 63,48 72,42 82,38 93,35 101,29 114,28 127,23 136,19 148,21 161,23 175,21 189,18 201,19 214,23 219,28 229,30 239,32 249,36 259,41 268,48 274,57 310,43 327,130 319,138 311,145 302,152 293,158 283,164 274,169 263,174 253,178 243,182 232,186 222,189 212,192 202,194 192,196 180,198 170,199 160,200 150,201 " />
</svg>
